<svg width="141" height="36" viewBox="0 0 141 36" fill="none" xmlns="http://www.w3.org/2000/svg">
<path d="M53.8237 14.9229L58.4556 6.96094H62.8755L56.2153 17.8896L63.0269 29H58.5615L53.8237 20.917L49.0708 29H44.6206L51.4473 17.8896L44.772 6.96094H49.1919L53.8237 14.9229ZM79.8438 20.9775C79.8438 23.5104 79.2686 25.5337 78.1182 27.0474C76.9678 28.5509 75.4238 29.3027 73.4863 29.3027C71.6901 29.3027 70.2521 28.7124 69.1724 27.5317V35.2969H65.4941V12.6221H68.8848L69.0361 14.2871C70.1159 12.9753 71.5841 12.3193 73.4409 12.3193C75.439 12.3193 77.0031 13.0661 78.1333 14.5596C79.2736 16.043 79.8438 18.1066 79.8438 20.7505V20.9775ZM76.1807 20.6597C76.1807 19.0249 75.8527 17.7282 75.1968 16.7695C74.5509 15.8109 73.6226 15.3315 72.4116 15.3315C70.908 15.3315 69.8283 15.9521 69.1724 17.1934V24.459C69.8384 25.7305 70.9282 26.3662 72.4419 26.3662C73.6125 26.3662 74.5257 25.897 75.1816 24.9585C75.8477 24.0099 76.1807 22.577 76.1807 20.6597ZM91.5444 15.9824C91.0601 15.9017 90.5605 15.8613 90.0459 15.8613C88.3607 15.8613 87.2254 16.5072 86.6401 17.7988V29H82.9619V12.6221H86.4736L86.5645 14.4536C87.4525 13.0308 88.6836 12.3193 90.2578 12.3193C90.7826 12.3193 91.2165 12.39 91.5596 12.5312L91.5444 15.9824ZM100.778 29.3027C98.4468 29.3027 96.5547 28.5711 95.1016 27.1079C93.6585 25.6346 92.937 23.6769 92.937 21.2349V20.7808C92.937 19.146 93.2498 17.6878 93.8755 16.4062C94.5112 15.1146 95.3993 14.1105 96.5396 13.394C97.6799 12.6776 98.9513 12.3193 100.354 12.3193C102.584 12.3193 104.305 13.0308 105.516 14.4536C106.737 15.8765 107.347 17.8896 107.347 20.4932V21.9766H96.6455C96.7565 23.3288 97.2056 24.3984 97.9927 25.1855C98.7899 25.9727 99.7889 26.3662 100.99 26.3662C102.675 26.3662 104.047 25.6851 105.107 24.3228L107.09 26.2148C106.434 27.1937 105.556 27.9556 104.456 28.5005C103.366 29.0353 102.14 29.3027 100.778 29.3027ZM100.339 15.271C99.3298 15.271 98.5124 15.6242 97.8867 16.3306C97.2712 17.0369 96.8776 18.0208 96.7061 19.2822H103.714V19.0098C103.634 17.7786 103.306 16.8503 102.73 16.2246C102.155 15.5889 101.358 15.271 100.339 15.271ZM119.396 24.5498C119.396 23.8939 119.124 23.3944 118.579 23.0513C118.044 22.7082 117.151 22.4054 115.899 22.1431C114.648 21.8807 113.604 21.5477 112.766 21.144C110.93 20.256 110.011 18.9694 110.011 17.2842C110.011 15.8714 110.607 14.6908 111.797 13.7422C112.988 12.7936 114.502 12.3193 116.338 12.3193C118.296 12.3193 119.875 12.8037 121.076 13.7725C122.287 14.7412 122.893 15.9976 122.893 17.5415H119.214C119.214 16.8351 118.952 16.2498 118.427 15.7856C117.903 15.3114 117.206 15.0742 116.338 15.0742C115.531 15.0742 114.87 15.2609 114.355 15.6343C113.851 16.0076 113.599 16.5072 113.599 17.1328C113.599 17.6979 113.836 18.1369 114.31 18.4497C114.784 18.7625 115.743 19.0804 117.186 19.4033C118.629 19.7161 119.759 20.0946 120.577 20.5386C121.404 20.9725 122.015 21.4972 122.408 22.1128C122.812 22.7284 123.014 23.4751 123.014 24.353C123.014 25.8263 122.403 27.0221 121.182 27.9404C119.961 28.8486 118.362 29.3027 116.384 29.3027C115.042 29.3027 113.846 29.0605 112.796 28.5762C111.747 28.0918 110.93 27.4258 110.344 26.5781C109.759 25.7305 109.466 24.8172 109.466 23.8384H113.039C113.089 24.7062 113.417 25.3773 114.022 25.8516C114.628 26.3158 115.43 26.5479 116.429 26.5479C117.398 26.5479 118.135 26.3662 118.639 26.0029C119.144 25.6296 119.396 25.1452 119.396 24.5498ZM135.411 24.5498C135.411 23.8939 135.138 23.3944 134.593 23.0513C134.058 22.7082 133.165 22.4054 131.914 22.1431C130.663 21.8807 129.618 21.5477 128.781 21.144C126.944 20.256 126.026 18.9694 126.026 17.2842C126.026 15.8714 126.621 14.6908 127.812 13.7422C129.003 12.7936 130.516 12.3193 132.353 12.3193C134.311 12.3193 135.89 12.8037 137.091 13.7725C138.302 14.7412 138.907 15.9976 138.907 17.5415H135.229C135.229 16.8351 134.967 16.2498 134.442 15.7856C133.917 15.3114 133.221 15.0742 132.353 15.0742C131.546 15.0742 130.885 15.2609 130.37 15.6343C129.866 16.0076 129.613 16.5072 129.613 17.1328C129.613 17.6979 129.85 18.1369 130.325 18.4497C130.799 18.7625 131.758 19.0804 133.201 19.4033C134.644 19.7161 135.774 20.0946 136.591 20.5386C137.419 20.9725 138.029 21.4972 138.423 22.1128C138.826 22.7284 139.028 23.4751 139.028 24.353C139.028 25.8263 138.418 27.0221 137.197 27.9404C135.976 28.8486 134.376 29.3027 132.398 29.3027C131.056 29.3027 129.861 29.0605 128.811 28.5762C127.762 28.0918 126.944 27.4258 126.359 26.5781C125.774 25.7305 125.481 24.8172 125.481 23.8384H129.053C129.104 24.7062 129.432 25.3773 130.037 25.8516C130.643 26.3158 131.445 26.5479 132.444 26.5479C133.413 26.5479 134.149 26.3662 134.654 26.0029C135.158 25.6296 135.411 25.1452 135.411 24.5498Z" fill="#171FE5"/>
<g clip-path="url(#clip0_0_47)">
<path d="M20.4994 27.437C18.7958 27.437 17.3951 28.7533 17.2247 30.413V30.4321C17.2247 30.5275 17.2058 30.6229 17.2058 30.7182C17.2247 32.5305 18.7011 33.9995 20.4994 33.9995C22.3166 33.9995 23.7741 32.5305 23.793 30.7182C23.7741 28.9059 22.3166 27.437 20.4994 27.437Z" fill="#171FE5"/>
<path d="M35.0376 27.437C33.8262 27.437 32.7661 28.1047 32.1983 29.0776C31.9333 29.5545 31.7818 30.1078 31.7818 30.6801C31.7818 32.5115 33.2583 33.9995 35.0755 33.9995C36.2112 33.9995 37.2144 33.4272 37.8012 32.5305C38.123 32.0155 38.3312 31.405 38.3312 30.7373C38.3502 28.925 36.8737 27.437 35.0376 27.437Z" fill="#171FE5"/>
<path d="M20.5005 28.0476C19.4972 28.0476 18.6265 28.6008 18.1722 29.4211C18.5697 29.1922 19.024 29.0587 19.5161 29.0587C20.9737 29.0587 22.1851 30.2605 22.2041 31.7295C22.2041 32.2064 22.0715 32.6451 21.8444 33.0267C22.6394 32.5688 23.1884 31.7104 23.1884 30.7184C23.1694 29.2495 21.958 28.0476 20.5005 28.0476Z" fill="url(#paint0_linear_0_47)"/>
<path d="M35.0374 28.0476C34.091 28.0476 33.2013 28.5627 32.7281 29.3639C32.7281 29.383 32.7092 29.383 32.7092 29.4021C33.1067 29.1731 33.561 29.0396 34.0342 29.0396C35.5106 29.0396 36.7221 30.2605 36.7221 31.7485C36.7221 32.1873 36.6085 32.6261 36.4003 33.0267C36.7599 32.8168 37.0628 32.5498 37.3089 32.2064C37.5928 31.7676 37.7253 31.2716 37.7253 30.7565C37.7253 29.2685 36.5328 28.0476 35.0374 28.0476Z" fill="url(#paint1_linear_0_47)"/>
<path d="M38.3878 23.7936H19.7996L14.6888 9.54313C14.3102 8.4939 13.3259 7.80713 12.2281 7.80713H2.61219C1.17359 7.80713 0 8.97082 0 10.4397C0 11.9087 1.17359 13.0724 2.61219 13.0724H10.4109L15.5217 27.3228C15.711 27.857 16.0706 28.2957 16.5249 28.601C17.2821 27.1702 18.7964 26.1973 20.5189 26.1973C22.4118 26.1973 24.0397 27.3801 24.7211 29.0588H30.873C31.5355 27.3801 33.1634 26.1973 35.0752 26.1973C36.9303 26.1973 38.5203 27.3228 39.2207 28.9253C40.2618 28.5819 41.0379 27.5899 41.0379 26.4262C41 24.9764 39.8264 23.7936 38.3878 23.7936Z" fill="#171FE5"/>
<path d="M38.388 21.2564C38.388 21.2564 38.2555 21.3327 38.0094 21.4471C37.7634 21.5616 37.3848 21.7333 36.8926 21.905C36.6466 22.0004 36.3626 22.0767 36.0598 22.1721C35.7569 22.2484 35.4162 22.3438 35.0565 22.401C34.3372 22.5536 33.4854 22.6299 32.5579 22.6108C31.6304 22.5918 30.5893 22.4582 29.5293 22.153C28.4693 21.8478 27.3903 21.3708 26.3682 20.7222C25.346 20.0927 24.3806 19.3105 23.5288 18.433C22.6581 17.5745 21.882 16.6207 21.1627 15.6668C20.4434 14.6939 19.7998 13.721 19.1941 12.7481C18.8912 12.2711 18.5884 11.7942 18.3234 11.3173C18.0394 10.8594 17.7555 10.4016 17.4905 9.94376C16.9416 9.06622 16.4116 8.22683 15.8626 7.50191C15.3326 6.75791 14.7837 6.12837 14.2158 5.6133C13.6479 5.09822 13.0801 4.6976 12.5122 4.41145C11.9443 4.1253 11.3954 3.9536 10.9222 3.83914C10.449 3.74376 10.0515 3.66745 9.78645 3.64837C9.52144 3.6293 9.37001 3.61022 9.37001 3.61022C9.37001 3.61022 9.50251 3.55299 9.76752 3.43853C10.0325 3.34314 10.4111 3.19053 10.9411 3.09514C11.4711 2.99976 12.1336 2.94253 12.9097 3.03791C13.6858 3.11422 14.5565 3.3813 15.4273 3.82007C16.298 4.25883 17.1498 4.88837 17.9259 5.6133C18.7209 6.33822 19.4591 7.15853 20.1595 8.03607C20.5191 8.47483 20.8599 8.9136 21.1816 9.37145C21.5224 9.8293 21.8442 10.2681 22.1849 10.745C22.8474 11.6607 23.491 12.5764 24.1346 13.4539C24.7781 14.3315 25.4406 15.1899 26.1221 15.953C26.4628 16.3345 26.8225 16.7161 27.1632 17.0595C27.5228 17.4028 27.8825 17.7271 28.2421 18.0324C28.9804 18.6428 29.7375 19.1388 30.5136 19.5394C31.2897 19.9401 32.0847 20.2453 32.8418 20.4742C33.599 20.7031 34.3372 20.8558 34.9997 20.9511C35.3405 21.0084 35.6433 21.0275 35.9462 21.0847C36.249 21.1038 36.5141 21.1419 36.7601 21.161C37.0062 21.1801 37.2334 21.1991 37.4226 21.2182C37.6119 21.2373 37.7823 21.2373 37.9337 21.2373C38.2366 21.2564 38.388 21.2564 38.388 21.2564Z" fill="#171FE5"/>
<path d="M35.53 21.6568C35.3407 21.6378 35.1325 21.6187 34.9432 21.5805C34.205 21.4852 33.4478 21.3135 32.6907 21.0845C31.82 20.8365 31.006 20.4932 30.2489 20.1116C29.3971 19.6538 28.602 19.1196 27.8638 18.5282C27.5231 18.2612 27.1824 17.9368 26.7281 17.5172C26.3684 17.1547 26.0088 16.7732 25.6681 16.4107L25.6491 16.3916C25.0245 15.6858 24.3809 14.8655 23.6237 13.8353C23.1884 13.2439 22.7719 12.6525 22.3366 12.0421C22.1094 11.7368 21.9012 11.4125 21.6741 11.1073C21.3144 10.6113 20.9926 10.1535 20.6898 9.75284L20.614 9.65746C20.2923 9.23777 19.9894 8.83715 19.6676 8.43654C18.9104 7.50177 18.2101 6.73869 17.4908 6.09007C16.7147 5.38423 15.9197 4.81192 15.1247 4.39223C14.3486 3.99161 13.5536 3.74361 12.8153 3.6673C12.6071 3.64823 12.4178 3.62915 12.2096 3.62915C12.3989 3.70546 12.5882 3.78177 12.7775 3.87715C13.4021 4.18238 14.0268 4.62115 14.6325 5.17438C14.6893 5.21254 14.7272 5.26977 14.7839 5.327C15.0868 5.55592 15.3897 5.80392 15.6925 6.09007C16.3929 6.73869 17.1122 7.50177 17.8694 8.43654C18.1911 8.83715 18.494 9.23777 18.8158 9.65746L18.8915 9.75284C19.1944 10.1535 19.5162 10.5922 19.8758 11.1073C20.103 11.4316 20.3301 11.7368 20.5383 12.0421C20.9737 12.6525 21.3901 13.2439 21.8255 13.8353C22.5826 14.8655 23.2262 15.6667 23.8509 16.3916L23.8698 16.4107C24.2105 16.7732 24.5702 17.1738 24.9298 17.5172C25.3841 17.9368 25.7248 18.2612 26.0656 18.5282C26.7849 19.1196 27.5988 19.6538 28.4506 20.1116C29.2078 20.5122 30.0217 20.8365 30.8924 21.0845C31.6496 21.3135 32.4067 21.4852 33.145 21.5805C33.3343 21.6187 33.5236 21.6378 33.7318 21.6568C33.5425 21.695 33.3532 21.7522 33.1639 21.7904C32.7475 21.8667 32.331 21.9239 31.8767 21.9621C32.1039 21.9812 32.331 22.0002 32.5582 22.0002H32.7475C33.5236 22.0002 34.2618 21.9239 34.9432 21.7904C35.1514 21.7522 35.3407 21.695 35.53 21.6568Z" fill="#171FE5"/>
<path d="M38.388 24.4039H19.3644L14.1211 9.75287C13.8372 8.95163 13.08 8.41748 12.2472 8.41748H2.61236C1.51448 8.41748 0.605896 9.3141 0.605896 10.4396C0.605896 10.6876 0.643754 10.9166 0.738398 11.1455C1.07912 10.8593 1.51448 10.7067 1.98771 10.7067H11.6036C12.4365 10.7067 13.1936 11.2409 13.4775 12.0421L18.683 26.5978C19.2319 26.3498 19.8377 26.2162 20.4623 26.2162C21.2005 26.2162 21.882 26.3879 22.4877 26.7122H32.9743C33.58 26.407 34.2804 26.2162 34.9997 26.2162C35.7379 26.2162 36.4194 26.3879 37.0251 26.7122H37.7255C38.5773 26.7122 39.3155 27.2655 39.5994 28.0095C40.0537 27.647 40.3377 27.0747 40.3377 26.4452C40.3944 25.3196 39.4859 24.4039 38.388 24.4039Z" fill="#171FE5"/>
</g>
<defs>
<linearGradient id="paint0_linear_0_47" x1="18.1665" y1="30.5369" x2="23.187" y2="30.5369" gradientUnits="userSpaceOnUse">
<stop stop-color="white" stop-opacity="0.4"/>
<stop offset="1" stop-color="white" stop-opacity="0"/>
</linearGradient>
<linearGradient id="paint1_linear_0_47" x1="32.7209" y1="30.5442" x2="37.7314" y2="30.5442" gradientUnits="userSpaceOnUse">
<stop stop-color="white" stop-opacity="0.4"/>
<stop offset="1" stop-color="white" stop-opacity="0"/>
</linearGradient>
<clipPath id="clip0_0_47">
<rect width="41" height="31" fill="white" transform="translate(0 3)"/>
</clipPath>
</defs>
</svg>
